<?xml version="1.0" encoding="UTF-8" standalone="no"?>
<!-- Generator: Adobe Illustrator 16.0.0, SVG Export Plug-In . SVG Version: 6.00 Build 0)  -->

<svg
   xmlns:dc="http://purl.org/dc/elements/1.1/"
   xmlns:cc="http://creativecommons.org/ns#"
   xmlns:rdf="http://www.w3.org/1999/02/22-rdf-syntax-ns#"
   xmlns:svg="http://www.w3.org/2000/svg"
   xmlns="http://www.w3.org/2000/svg"
   xmlns:sodipodi="http://sodipodi.sourceforge.net/DTD/sodipodi-0.dtd"
   xmlns:inkscape="http://www.inkscape.org/namespaces/inkscape"
   version="1.1"
   id="Capa_1"
   x="0px"
   y="0px"
   width="300.619px"
   height="300.618px"
   viewBox="0 0 300.619 300.618"
   style="enable-background:new 0 0 300.619 300.618;"
   xml:space="preserve"
   inkscape:version="0.91 r13725"
   sodipodi:docname="01img-flower.svg"><metadata
     id="metadata47"><rdf:RDF><cc:Work
         rdf:about=""><dc:format>image/svg+xml</dc:format><dc:type
           rdf:resource="http://purl.org/dc/dcmitype/StillImage" /><dc:title /></cc:Work></rdf:RDF></metadata><defs
     id="defs45" /><sodipodi:namedview
     pagecolor="#ffffff"
     bordercolor="#666666"
     borderopacity="1"
     objecttolerance="10"
     gridtolerance="10"
     guidetolerance="10"
     inkscape:pageopacity="0"
     inkscape:pageshadow="2"
     inkscape:window-width="1366"
     inkscape:window-height="706"
     id="namedview43"
     showgrid="false"
     inkscape:zoom="9.0173682"
     inkscape:cx="138.78203"
     inkscape:cy="54.689936"
     inkscape:window-x="-8"
     inkscape:window-y="-8"
     inkscape:window-maximized="1"
     inkscape:current-layer="g3" /><g
     id="g3"
     style="fill:#585858;fill-opacity:1"><path
       style="fill:#585858;fill-opacity:1"
       d="m 209.3418,0.00195313 c -6.7326,-0.11206055 -12.25383,7.23906247 -14.54883,12.97656287 -1.224,2.448 -1.83789,5.507078 -1.83789,7.955078 -8.567,-10.404 -22.64353,-16.5230784 -34.26953,-7.955078 -5.508,4.284 -8.56782,12.238703 -5.50782,18.970703 0.611,1.836 1.83555,3.061156 3.06055,4.285156 -3.673,3.06 -6.73069,7.344234 -9.17969,12.240234 -1.836,-3.672 -4.28375,-7.345578 -7.34375,-11.017578 7.956,-9.18 8.56652,-33.6594216 -4.89648,-36.1074216 -14.076,-2.448 -25.70495,11.6291406 -29.37695,23.8691406 -1.836,-12.852 -9.179519,-25.70514063 -24.478519,-23.8691406 -7.344,0.612 -12.240844,6.1195625 -13.464844,12.8515626 -0.612,2.448 0.0013,5.509031 0.613281,7.957031 -13.464,-8.568 -31.824703,-13.463453 -36.720703,3.060547 -3.06,9.792 4.284844,20.807062 13.464844,27.539062 -7.956,3.672 -14.689391,10.403985 -16.525391,19.583985 -1.224,7.344 1.836969,15.300719 9.792969,17.136719 4.896,1.224 11.016719,0.61139 17.136719,-1.22461 -9.18,11.628 -14.076063,29.376034 1.835937,37.332034 7.956,4.284 17.747797,2.44873 25.091797,-2.44727 5.508,-3.672 12.240172,-11.62865 14.076172,-18.97265 3.06,0.612 6.119018,0.61132 9.791018,0.61132 -11.016003,9.18 -18.970893,23.25671 -13.462893,36.72071 4.284,11.016 17.747733,11.62708 26.927733,7.95507 2.448,-0.61199 4.89575,-1.83587 7.34375,-3.67187 12.24,22.032 15.91144,50.79655 16.52344,79.56055 -9.18,-3.672 -23.25513,-4.8963 -25.70313,7.3457 -1.224,6.118 4.28302,8.56569 9.79102,9.17969 0.612,0 1.22394,0.001 1.83594,0.61133 -0.612,0.612 -1.83527,1.22589 -2.44727,1.83789 -3.672,3.06 -9.18109,6.73028 -6.12109,12.23828 4.284,7.956 15.91348,3.67139 22.64648,-1.22461 -0.612,15.3 -0.61328,30.59917 -0.61328,43.45117 0,2.448 3.06088,2.448 3.67188,0 1.836,-15.3 2.44921,-31.21172 2.44921,-46.51172 3.671,0.61 7.34363,1.22461 11.01563,1.22461 -0.611,15.3 2e-4,30.59911 4.2832,45.28711 0.612,2.448 4.89649,2.44867 4.89649,-0.61133 -1.837,-59.364 14.68647,-107.71108 36.10547,-160.95508 6.731,-0.612 12.24045,-4.28551 14.68945,-12.85351 1.224,-5.508 6e-5,-9.79217 -1.83594,-14.07617 1.224,0.612 2.4456,1.22393 3.0586,1.83593 7.34499,3.672 15.91348,3.67268 22.64648,-0.61132 6.732,-4.284 9.17947,-12.851317 6.73047,-20.195317 -0.612,-3.06 -2.44721,-6.120359 -4.28321,-8.568359 1.83601,0 3.67115,-0.611328 6.11915,-0.611328 6.731,-1.224 18.35931,-4.284235 20.19531,-12.240235 0.611,-6.732 -8.56717,-14.076719 -14.07617,-17.136719 -4.283,-2.448 -8.56752,-3.671203 -12.85352,-4.283203 3.673,-2.448 6.12036,-5.508359 8.56836,-8.568359 3.672,-6.732 3.06112,-14.687984 -3.67187,-19.583984 -5.50901,-4.284 -12.85266,-4.283938 -18.97266,-1.835938 -3.672,1.836 -6.12136,4.284422 -8.56836,6.732422 0,-3.06 6.7e-4,-6.120359 -0.61133,-8.568359 -1.225,-6.12 -4.2839,-15.2994379 -11.62891,-16.52343788 -0.459,-0.0765 -0.91248,-0.11752929 -1.36132,-0.12499999 z M 130.50195,10.617188 c 6.14152,0.142242 6.07457,9.246562 5.53907,14.601562 -0.612,2.448 -1.83527,4.895078 -2.44727,7.955078 -6.12,-4.896 -15.30148,-9.79175 -22.64648,-7.34375 3.061,-7.344 9.18239,-12.2395 16.52539,-14.6875 1.1475,-0.3825 2.15193,-0.545711 3.02929,-0.52539 z m -45.869138,0.52539 c 12.852001,0 14.688719,15.911125 17.136718,25.703125 -0.612,4.896 0.61194,10.404781 1.83594,15.300781 -3.06,-3.06 -7.343954,-4.283875 -11.626954,-3.671875 -5.508,0.612 -10.404907,4.283016 -11.628907,9.791016 -1.224,4.896 0.612204,9.180234 4.283203,12.240234 -5.507999,3.672 -9.179687,9.791438 -9.179687,16.523438 0,7.344 3.671016,12.240781 9.791016,15.300783 -5.508,7.344 -9.791313,17.13611 -20.195313,15.91211 -7.344,-0.612 -9.179078,-8.5675 -7.955078,-14.6875 1.836,-6.732002 6.731016,-12.240049 9.791016,-17.748049 0.612,-1.224 0.612,-2.448547 0,-3.060547 1.224,-2.448 0.611453,-6.119813 -3.060547,-5.507813 -5.508,0.612 -11.015438,2.448547 -16.523438,3.060547 -2.448,0.612 -6.732359,1.223391 -8.568359,-1.224609 -1.224,-1.836 0.0013,-4.897094 0.613281,-6.121094 2.448,-6.12 8.5675,-11.014891 14.6875,-13.462891 5.508,1.836 11.016109,2.448 15.912109,0 2.448,-1.224 1.836001,-4.897093 0,-6.121093 -4.896,-3.06 -11.016109,-3.670469 -15.912109,-6.730469 -4.284,-2.448 -12.240234,-8.568172 -12.240234,-14.076172 -0.612,-11.628 20.195609,-1.836125 30.599609,3.671875 1.224,1.836 3.059813,3.672484 5.507813,4.896484 1.836,0.612 4.285156,-0.0012 4.285156,-2.449218 0.612,-0.612 0.612,-1.836547 0,-3.060547 -0.612,-0.612 -0.612609,-1.223938 -1.224609,-1.835938 -3.060001,-9.18 -9.792126,-22.642578 3.671874,-22.642578 z m 122.908208,0.355469 c 0.42678,0.0024 0.86903,0.08373 1.32812,0.255859 3.061,1.224 4.28388,11.016844 3.67188,13.464844 0,4.896 -2.44655,8.567563 -3.06055,12.851562 0.612,1.836 2.44848,3.671876 4.89648,3.671876 1.225,1.835999 3.67082,2.447328 5.50782,0.611328 4.896,-7.344 12.85285,-20.194829 23.25585,-15.298828 15.91201,6.731999 -12.8531,19.583859 -15.9121,23.255859 -2.447,2.448 -1.3e-4,7.34314 3.67187,6.119141 l 0.61328,0 c 0.611,0.612 1.83555,1.225281 3.06055,0.613281 5.508,-1.224 11.01515,-6.3e-5 15.91016,1.835937 2.448,0.612 11.62996,6.118344 9.79296,10.402344 -1.224,2.448 -12.85278,4.284484 -15.30078,4.896484 -4.896,0.612 -8.56589,-1.224547 -13.46289,-3.060546 -3.061,-1.224001 -6.12076,2.449765 -5.50976,5.509765 0,1.224 0.61161,1.835266 1.22461,2.447266 0.612,0 0.61161,0.611328 1.2246,0.611328 0.611,0.612 1.22527,1.223937 2.44727,1.835937 3.673,3.06 7.34536,6.732907 8.56836,11.628907 1.224,5.508 -0.61147,11.014949 -6.73047,11.626949 -10.404,0.612 -14.07559,-9.179496 -20.80859,-14.687496 7.344,-6.732 12.85201,-14.687797 9.79101,-25.091797 -4.284,-15.912 -20.80876,-13.464422 -34.88476,-6.732422 1.837,-8.568 0.61218,-17.748531 -5.50782,-22.644531 -5.509,-4.284 -12.85265,-4.895266 -18.97265,-2.447266 -2.447,-2.448 -3.06094,-5.508359 -1.83594,-8.568359 2.448,-4.896 8.56689,-6.119203 13.46289,-4.283203 9.792,3.06 12.85299,12.239375 19.58399,18.359375 1.837,1.836 4.89648,0.612062 4.89648,-1.835938 0.612,-0.612 1.22461,-1.836547 1.22461,-3.060547 -0.611,-4.284 -1.225,-8.566281 0,-12.238281 1.11016,-2.773125 3.72789,-10.071576 7.85352,-10.048828 z m -91.95313,24.458984 c 5.42194,-0.258187 14.0292,7.31436 16.7832,10.06836 5.509,5.508 7.95658,12.240656 11.01758,18.972656 1.224,2.448 5.50781,1.223391 5.50781,-1.224609 l 0,-1.222657 c 6.731,-7.956 7.95458,-25.092531 22.64258,-22.644531 10.403,1.836 9.18283,16.523125 3.67383,25.703125 -2.447,2.448 -4.89614,4.284422 -6.11914,6.732422 0,0 -0.61328,-6.72e-4 -0.61328,0.611328 -1.836,0.612 -1.83472,4.285156 0.61328,4.285156 1.224,1.224 2.44688,1.835328 3.67187,0.611328 8.56701,-5.508 25.0921,-20.808171 35.4961,-14.076171 12.852,8.568 -14.07675,34.884953 -25.09375,29.376953 -3.061,-1.224 -4.89649,1.224546 -4.89649,3.060547 l -0.61132,0 c -3.061,0.611999 -3.061,4.895142 0,6.119142 10.4,3.672 33.04498,3.05998 31.20898,19.58398 -1.836,17.748 -33.65991,1.22406 -41.00391,-1.83594 l -0.61132,0 c -2.447,-1.83599 -6.73114,1.22449 -6.11914,4.89649 3.672,10.404 14.07526,25.08981 2.44726,34.88281 -6.731,6.119 -14.07572,0.002 -17.13672,-6.73047 -3.06,-7.344 -0.61106,-16.52514 1.83594,-23.86914 0.612,-2.448 -2.4472,-4.89587 -4.2832,-3.67187 -0.612,-1.836 -3.05953,-3.05994 -4.89453,-1.83594 -7.344,5.508 -28.76538,28.15217 -36.10938,14.07617 -6.730999,-12.24 7.95598,-26.92815 19.58398,-33.66015 2.448,-0.612 4.89643,-1.22327 6.73243,-2.44727 3.672,-1.836 1.83606,-7.345703 -1.83594,-7.345703 -7.956,0 -42.227907,4.896312 -41.003907,-9.179688 1.224,-13.464 22.032487,-10.402406 34.271487,-8.566406 3.061,1.836 6.73101,3.671203 9.79101,4.283203 3.672,0.612 8.56916,-4.28375 4.28516,-7.34375 -6.12,-4.284 -12.24044,-7.956172 -16.52344,-14.076172 -3.061,-4.284 -8.56842,-14.075312 -6.73242,-20.195312 0.765,-2.295 2.21808,-3.251828 4.02539,-3.337891 z M 93.814453,56.429688 c 2.448,0 4.895141,1.223874 6.119141,3.671874 0.611996,1.836 0.613276,3.671813 0.613286,5.507813 -3.519138,0.03822 -6.617652,0.229769 -10.289652,1.453769 l -0.689714,0.345768 -0.03822,0.0364 c -3.672,-4.283999 -0.610844,-10.403624 4.285159,-11.015624 z m 110.771487,39.78125 c 0,1.224 0.61294,3.058531 1.83594,4.894532 -1.83601,-1.224001 -3.67377,-1.834595 -5.50977,-3.058595 1.225,-0.612 2.44883,-1.223938 3.67383,-1.835937 z m -31.82617,33.048832 c 6.731,3.672 15.29985,7.34436 23.25585,8.56835 -12.84999,27.53801 -26.31387,56.91368 -33.04687,87.51368 -4.284,0 -8.56852,0.61256 -12.85352,1.22656 -1.836,0 -1.22271,3.06055 0.61329,3.06055 3.671,0 7.95595,-6.8e-4 11.62695,0.61132 -0.611,3.06 -1.22494,5.50841 -1.83594,8.56641 -3.061,0 -6.73197,0.61133 -9.79297,0.61133 -0.612,0 -0.61065,-0.61133 -1.22265,-0.61133 l -1.83594,0 0.60937,-0.61133 c 1.225,-1.226 0.61363,-3.67053 -0.60937,-4.89453 0.611,-1.224 1.22272,-2.44787 -0.61328,-3.67187 l -0.61133,0 c -0.611,-11.016 -1.83655,-22.03216 -3.06055,-33.66016 -2.448,-17.748 -3.67089,-36.10687 -13.46289,-50.79687 3.06,-2.44801 6.11941,-4.89636 8.56641,-8.56836 -2.447,7.344 -3.06067,15.3012 0.61133,22.0332 4.284,7.956 13.46353,14.07495 22.64453,11.62695 18.359,-4.896 17.74858,-26.3139 11.01758,-41.0039 z m -40.39063,100.97851 c 3.673,0 7.3453,1.22427 10.4043,2.44727 l 0,1.22461 c -1.836,1.224 -4.2851,2.4472 -6.1211,4.2832 -2.446,0 -10.40195,7.3e-4 -11.62695,-2.44727 -1.836,-3.061 4.89575,-4.89581 7.34375,-5.50781 z m 20.19531,11.01563 c 2.448,0 5.50936,-6.8e-4 8.56836,0.61132 -1.222,3.06 -1.83594,5.50904 -1.83593,7.95704 -3.672,0.61 -7.34363,0.61 -11.01563,0 l 0,-5.50782 c 0.612,0 1.22427,-0.001 2.44727,-0.61328 1.224,-0.612 1.83593,-1.22426 1.83593,-2.44726 z m -11.62695,3.67187 2.44727,0 0,3.0625 c -3.061,1.836 -6.11969,3.6712 -9.17969,4.2832 -1.224,0.61 -1.83527,0.61133 -2.44727,0.61133 3.06,-2.448 6.11969,-4.89703 9.17969,-7.95703 z"
       id="path9"
       inkscape:connector-curvature="0"
       sodipodi:nodetypes="sccccccccccccccccccsccccccccccccsccccccccccccccccccccccssccccsscccccsccccccccccsccccccccsscccccccccccccccccccccccccccccccssccsccccccccccccccccccccccccsccccccscccccccccccccccsccsscccccccccccccccccccccccccccccc" /><path
       d="m 161.133,83.97 c -4.284,-3.672 -11.017,-3.672 -15.3,-0.612 -0.612,-0.612 -1.836,-1.224 -3.061,0 -6.12,5.508 -11.628,15.3 -5.508,23.256 6.12,7.344 18.359,6.12 24.479,0 6.123,-6.12 6.734,-16.524 -0.61,-22.644 z m -5.508,17.748 c -3.672,3.06 -11.016,4.896 -14.075,0 -1.836,-3.06 -0.612,-7.344 1.224,-11.016 0.612,0.612 1.836,0.612 3.061,0 3.06,-3.672 8.566,-4.896 11.627,-0.612 3.059,3.672 1.835,8.568 -1.837,11.628 z"
       id="path11"
       style="fill:#d6d38c;fill-opacity:1"
       inkscape:connector-curvature="0" /><path
       inkscape:connector-curvature="0"
       style="opacity:1;fill:#d6d38c;fill-opacity:1"
       d="m 103.56923,52.088667 c -3.06,-3.06 -7.343948,-4.28388 -11.626948,-3.67188 -5.507996,0.612 -10.404906,4.28302 -11.628906,9.79102 -1.224,4.896 0.79174,9.59977 4.2832,12.24023 0,0 0.633012,-1.386176 4.924425,-3.05412 1.91157,-0.74297 6.389164,-1.936004 11.067099,-1.779304 0,0 5.25272,-8.756157 2.98113,-13.525946 z m -9.791018,4.572589 c 2.448,0 4.895138,0.934481 6.119138,3.382481 0.612,1.836 0.62319,3.647757 0.66141,5.541082 -3.729317,-0.07643 -7.143477,0.368475 -11.025665,1.840885 l -0.04003,-0.03822 c -3.672,-4.28399 -0.61085,-10.114231 4.285146,-10.726231 z"
       id="path9-0"
       sodipodi:nodetypes="ccccssccccccc" /></g><g
     id="g13" /><g
     id="g15" /><g
     id="g17" /><g
     id="g19" /><g
     id="g21" /><g
     id="g23" /><g
     id="g25" /><g
     id="g27" /><g
     id="g29" /><g
     id="g31" /><g
     id="g33" /><g
     id="g35" /><g
     id="g37" /><g
     id="g39" /><g
     id="g41" /></svg>