<?xml version="1.0" encoding="UTF-8" standalone="no"?>
<!-- Generator: Adobe Illustrator 16.0.0, SVG Export Plug-In . SVG Version: 6.00 Build 0)  -->

<svg
   xmlns:dc="http://purl.org/dc/elements/1.1/"
   xmlns:cc="http://creativecommons.org/ns#"
   xmlns:rdf="http://www.w3.org/1999/02/22-rdf-syntax-ns#"
   xmlns:svg="http://www.w3.org/2000/svg"
   xmlns="http://www.w3.org/2000/svg"
   xmlns:sodipodi="http://sodipodi.sourceforge.net/DTD/sodipodi-0.dtd"
   xmlns:inkscape="http://www.inkscape.org/namespaces/inkscape"
   version="1.1"
   id="Capa_1"
   x="0px"
   y="0px"
   width="351.553px"
   height="351.552px"
   viewBox="0 0 351.553 351.552"
   style="enable-background:new 0 0 351.553 351.552;"
   xml:space="preserve"
   inkscape:version="0.91 r13725"
   sodipodi:docname="02img-photoboot.svg"><metadata
     id="metadata157"><rdf:RDF><cc:Work
         rdf:about=""><dc:format>image/svg+xml</dc:format><dc:type
           rdf:resource="http://purl.org/dc/dcmitype/StillImage" /><dc:title></dc:title></cc:Work></rdf:RDF></metadata><defs
     id="defs155" /><sodipodi:namedview
     pagecolor="#ffffff"
     bordercolor="#666666"
     borderopacity="1"
     objecttolerance="10"
     gridtolerance="10"
     guidetolerance="10"
     inkscape:pageopacity="0"
     inkscape:pageshadow="2"
     inkscape:window-width="764"
     inkscape:window-height="480"
     id="namedview153"
     showgrid="false"
     inkscape:zoom="0.67130893"
     inkscape:cx="175.7765"
     inkscape:cy="175.776"
     inkscape:window-x="384"
     inkscape:window-y="171"
     inkscape:window-maximized="0"
     inkscape:current-layer="g5" /><g
     id="g3"
     style="fill:#585858;fill-opacity:1"><g
       id="g5"
       style="fill:#585858;fill-opacity:1"><path
         inkscape:connector-curvature="0"
         style="fill:#585858;fill-opacity:1"
         id="path9"
         d="m 350.076,91.588 c 0,-2.448 -1.836,-3.672 -3.672,-3.672 0.611,-1.836 -0.612,-4.896 -3.672,-4.896 -75.89,-6.732 -154.226,-10.404 -231.335,-9.792 0.612,-2.448 1.224,-5.508 0.612,-8.568 0,-1.836 -1.224,-3.06 -3.672,-3.672 -4.896,-0.612 -9.792,-1.224 -14.076,-1.836 -3.672,-0.612 -7.956,-1.224 -11.016,1.836 -3.06,3.06 -3.06,7.956 -1.836,12.24 -4.896,0 -9.792,0 -14.688,0 l 0.612,0 c 1.224,-0.612 2.448,-1.224 2.448,-2.448 4.284,-17.748 -25.704,-14.076 -34.884,-14.076 -6.732,0 -14.688,0.612 -17.136,7.956 -1.836,3.672 -0.612,7.956 2.448,10.404 -4.284,0 -8.568,0 -12.852,0.612 -1.836,0 -2.448,1.224 -2.448,2.448 -1.836,0 -3.672,0.612 -3.672,3.06 -2.448,41.616 -0.612,83.844 0,125.459 0,20.195 0,39.779 0.612,59.977 0,9.182 -2.448,17.137 4.284,23.256 0.612,0.611 1.224,0.611 2.448,0.611 0,1.225 0.612,1.838 2.448,1.838 48.96,4.283 97.92,2.447 147.492,2.447 3.06,0 6.732,0 9.792,0 1.224,0 2.448,0 4.284,0 53.855,0.611 107.711,0 160.956,-4.285 1.836,0 3.061,-1.836 3.061,-3.059 1.836,1.223 4.896,1.223 5.508,-1.225 11.015,-64.259 10.402,-129.131 7.954,-194.615 z M 91.812,65.271 c 4.284,0.612 9.18,1.224 13.464,1.836 0,1.836 -0.612,3.672 -1.224,5.508 -6.12,0 -11.628,0 -17.748,0 -0.612,-1.224 -0.612,-2.448 -0.612,-3.672 1.224,-3.672 3.061,-3.672 6.12,-3.672 z M 33.673,64.048 c 1.836,0 3.672,0 5.508,0 3.06,0 6.12,0 8.568,0 5.508,0 16.524,-1.836 15.912,6.12 0,1.224 0.612,2.448 1.836,2.448 -12.852,0 -25.704,0.612 -38.556,1.224 0.612,-1.224 0,-2.448 -1.224,-3.672 0.612,-4.897 3.06,-6.732 7.956,-6.12 z m 25.092,223.38 0,0 c 0,-3.062 0,-5.51 0,-7.957 0,-3.061 -4.896,-3.061 -4.896,0 0,2.447 0,4.896 0,7.957 0,0 0,0 0,0.611 -6.12,0 -12.852,0 -18.972,0 -0.612,-4.285 -1.224,-8.568 -1.224,-12.854 0,-2.447 -3.06,-2.447 -3.672,-0.611 -1.224,4.283 -1.224,9.18 0.612,13.465 -5.508,0 -11.628,0 -17.136,0.611 0,-1.225 0,-2.447 -1.224,-2.447 -3.672,-1.225 -0.612,-94.248 -0.612,-102.816 0,-11.627 0,-23.255 0,-34.271 2.448,0 5.508,0.612 7.956,0.612 -1.224,3.06 -0.612,6.732 1.224,9.18 1.836,1.836 4.896,0 3.672,-1.836 -1.224,-2.448 -1.224,-4.284 -1.224,-6.732 l 0,0 c 16.524,1.224 33.048,1.836 50.184,1.836 0,0 0,0 0,0.612 -1.224,5.508 -1.224,10.404 0.612,15.3 1.224,3.672 6.732,2.448 5.508,-1.836 -1.224,-4.284 -1.836,-8.568 -1.224,-13.464 0,-0.612 0,-0.612 0,-1.224 9.18,0 18.972,0 28.152,-0.612 -4.896,5.508 -9.18,11.016 -12.24,17.748 0.612,-3.06 0.612,-6.732 0.612,-9.792 0,-1.836 -3.06,-2.448 -3.672,-0.612 -1.836,5.508 -1.836,10.404 -1.836,15.912 0,1.225 0.612,1.836 1.224,1.836 -1.836,4.285 -3.672,8.568 -4.896,13.463 -4.896,18.973 -3.672,37.943 2.448,54.469 -0.612,0 -1.836,0.611 -1.836,1.836 -0.612,3.672 0,7.344 0,11.018 0,1.836 2.448,1.836 3.06,0 0,-2.449 0,-5.51 0,-7.957 7.344,17.748 21.42,32.438 39.78,40.393 -23.868,-1.226 -47.125,-1.838 -70.38,-1.838 z m 88.74,-146.268 c 1.224,1.836 2.448,3.06 3.672,4.896 -4.896,2.448 -9.792,5.508 -14.688,9.18 -4.896,-3.06 -9.792,-6.12 -14.076,-9.792 6.12,-4.284 12.852,-7.956 20.196,-10.404 1.836,1.835 3.06,4.284 4.896,6.12 z m -0.612,-7.957 c 6.12,-1.836 12.24,-3.06 18.972,-4.284 0,0 0,0 0,0.612 1.224,3.672 1.836,7.344 3.06,11.016 -4.284,0.612 -8.568,1.836 -12.852,3.672 -1.224,-1.836 -3.06,-3.672 -4.284,-5.508 -1.836,-1.836 -3.672,-3.672 -4.896,-5.508 z m -14.688,25.705 c -4.896,4.284 -9.18,9.792 -12.852,15.3 l 0,0 c -4.284,-4.284 -10.404,-6.732 -16.524,-8.568 4.284,-6.732 9.792,-12.24 15.3,-17.136 4.896,3.672 9.18,7.343 14.076,10.404 z m -21.42,39.78 c -0.612,6.119 -0.612,12.852 0,18.973 -6.12,0 -12.852,0.611 -18.972,0.611 -3.06,0 -3.06,4.283 0,4.283 6.732,0 13.464,0.611 20.196,0.611 1.224,4.283 2.448,8.568 4.284,12.854 -6.12,1.836 -12.24,4.283 -18.972,5.508 -2.448,0.611 -1.224,4.283 1.224,4.283 6.732,-1.225 13.464,-2.447 19.584,-5.508 1.836,3.061 3.672,6.119 6.12,8.568 -5.508,4.895 -10.404,10.402 -15.3,15.91 -17.136,-17.748 -23.868,-44.676 -17.748,-70.99 6.732,1.836 12.852,4.286 19.584,4.897 z m -18.36,-9.182 c 0,-1.225 0.612,-1.836 0.612,-3.061 1.836,-6.119 4.896,-12.239 7.956,-17.747 2.448,1.224 4.896,2.448 7.344,3.672 3.06,1.836 5.508,3.672 9.18,4.896 l 0,0 c -2.448,4.896 -4.896,10.404 -6.12,16.523 l 0,0.611 c -6.12,-1.833 -12.24,-3.669 -18.972,-4.894 z m 18.972,77.114 c 5.508,-4.896 10.404,-9.793 15.3,-15.301 4.284,4.283 9.18,8.568 14.688,11.627 -3.672,5.51 -5.508,11.629 -7.344,17.748 -8.568,-2.447 -16.524,-7.955 -22.644,-14.074 z m 44.676,9.179 c 0,3.672 -0.612,6.73 -1.224,10.404 -0.612,0 -1.224,0 -1.836,0 -5.508,-0.613 -10.404,-1.838 -14.688,-3.061 1.836,-5.508 4.896,-11.629 6.732,-17.137 3.672,1.836 7.344,3.061 11.016,4.283 0,1.228 0,3.064 0,5.511 z m -1.224,-15.912 c -31.212,-9.791 -42.84,-47.123 -29.988,-75.275 9.792,-20.808 27.54,-31.212 48.348,-36.72 0.612,0 1.224,0 1.224,-0.612 2.448,-0.612 4.896,-1.224 6.731,-1.836 0.612,0.612 1.225,1.836 2.448,1.836 33.66,7.956 59.363,36.721 47.735,72.828 -9.79,31.824 -45.285,49.572 -76.498,39.779 z m 15.3,-131.58 c 7.957,-0.612 16.523,-0.612 25.091,0 -1.225,4.284 -2.448,8.568 -1.836,12.852 -0.612,0 -1.225,0 -1.225,0 l 0,0 c -5.509,-1.224 -11.017,-1.224 -17.136,-1.224 -1.222,-4.283 -3.67,-7.956 -4.894,-11.628 z m 57.527,118.729 c 3.062,-3.674 6.12,-7.957 8.568,-12.24 4.896,1.836 9.792,3.672 15.3,4.895 -3.672,5.508 -7.956,11.018 -12.852,15.912 -2.448,-4.284 -6.732,-6.731 -11.016,-8.567 z m 7.345,11.627 c -4.284,3.672 -8.568,6.732 -12.854,9.793 -1.224,-1.225 -3.06,-2.449 -4.284,-4.285 -1.224,-1.225 -3.06,-3.061 -4.283,-4.896 3.673,-2.447 7.345,-5.508 10.403,-8.566 1.226,0.611 3.062,1.836 4.284,2.447 2.449,1.835 4.285,4.284 6.734,5.507 z m 4.284,-29.375 c 1.836,-4.285 3.061,-8.568 4.283,-12.854 0,-1.225 0,-1.836 0.612,-3.061 1.836,0 3.672,0 5.508,0.611 4.284,0.613 8.568,1.836 12.853,1.836 -1.225,5.51 -3.672,11.018 -6.119,16.525 -0.612,0.611 -0.612,1.223 -1.226,2.447 -4.896,-3.057 -10.404,-4.28 -15.911,-5.504 z m 4.895,-21.42 c 0.611,-6.73 0,-12.852 -1.225,-18.973 6.731,-2.447 13.465,-4.283 20.809,-6.73 1.836,8.566 1.836,18.359 0,27.539 0,0 0,0 -0.612,0 -5.508,-1.836 -12.239,-1.836 -18.972,-1.836 z m -3.059,-25.092 c -1.836,-5.508 -4.283,-10.404 -7.345,-14.688 l 0,0 c 3.062,-1.836 6.732,-3.672 10.404,-5.508 3.06,-1.224 6.731,-2.448 9.792,-4.284 3.672,6.12 6.731,12.24 8.567,18.972 -7.955,-0.613 -14.687,1.836 -21.418,5.508 z m -9.792,-18.972 c -0.613,0 -0.613,0 0,0 -2.447,-2.448 -4.283,-5.508 -6.731,-7.344 0.612,0 1.224,0 1.836,-0.612 3.061,-2.448 5.508,-4.896 8.568,-7.344 1.836,-1.836 4.283,-3.672 6.119,-5.508 3.673,3.06 6.731,6.12 9.792,9.792 -7.956,1.835 -14.689,6.732 -19.584,11.016 z m -1.836,-20.809 c -3.061,2.448 -5.509,5.508 -8.567,7.956 -0.612,0.612 -0.612,1.224 -0.612,1.836 -1.836,-1.224 -3.06,-2.448 -4.896,-3.672 l 0,-0.612 c 0,-3.672 1.224,-6.732 3.06,-9.792 1.225,-2.448 3.061,-4.896 4.284,-7.344 4.284,1.836 8.567,4.284 12.24,6.732 -1.837,1.837 -3.673,3.672 -5.509,4.896 z m -19.585,3.672 c -3.672,-1.836 -7.344,-3.06 -11.016,-4.284 0.612,-4.896 2.448,-9.792 4.896,-14.688 0,0 0,0 0,-0.612 4.283,0.612 8.567,1.224 12.853,2.448 -4.896,4.284 -6.733,11.017 -6.733,17.136 z m -50.183,139.537 c 1.224,-4.896 2.448,-10.404 1.836,-15.301 l 0.612,0 c 6.12,1.225 12.24,1.225 17.749,0.611 0.611,4.283 0.611,8.568 1.836,12.24 -7.345,1.836 -14.689,2.45 -22.033,2.45 z m 26.927,-3.061 c 0,-2.447 -0.61,-4.283 -1.224,-6.73 -0.612,-1.836 -0.612,-3.674 -1.225,-5.51 3.673,-0.611 6.731,-1.223 10.403,-2.447 0.612,1.836 1.225,3.672 1.836,6.121 0.612,1.836 1.226,3.672 1.226,5.508 -3.06,1.222 -6.732,1.833 -11.016,3.058 z m 14.688,-9.791 c -0.612,-1.836 -1.225,-4.285 -2.448,-6.121 3.672,-1.225 7.344,-3.061 10.404,-4.895 1.836,3.061 4.283,6.73 7.344,9.18 -4.284,2.447 -9.18,4.896 -14.076,6.732 0,-1.837 -0.611,-3.671 -1.224,-4.896 z M 336,284.979 c -0.611,-0.611 -1.224,-0.611 -2.448,-0.611 -16.522,0 -33.048,0.611 -48.96,1.225 0.612,-0.611 0.612,-1.225 0,-2.447 -1.836,-1.836 -1.836,-4.896 -0.61,-7.346 0.61,-1.836 -1.226,-3.672 -3.062,-1.836 -3.672,3.061 -3.672,7.957 -0.611,11.629 -4.283,0 -7.955,0 -12.239,0.611 1.224,0 1.836,-0.611 2.447,-1.836 0.611,-1.836 -1.225,-3.672 -3.061,-2.447 0,0 0,0 0,-0.611 0,-0.613 0,-1.225 0,-1.836 0,-0.613 0.612,-1.838 0.612,-2.449 0,-1.836 -0.612,-3.061 -1.836,-4.895 -1.836,-1.836 -4.896,0.611 -3.673,2.447 1.225,1.836 -0.611,4.283 0,6.119 0,1.225 0.611,2.449 1.837,3.674 0.61,0.611 1.836,1.223 3.06,1.223 -20.808,0.613 -41.616,1.225 -62.424,1.836 16.523,-6.119 31.212,-15.91 42.84,-28.15 0,0 -0.612,0.611 -0.612,1.225 -1.224,5.508 0,10.402 3.673,14.688 1.836,1.836 4.283,-0.611 3.061,-2.449 -1.836,-3.061 -3.061,-7.344 -2.448,-11.016 0.612,-2.447 -3.06,-3.672 -4.284,-2.447 13.465,-13.465 22.646,-30.602 25.704,-50.186 3.062,-19.584 -0.61,-39.167 -10.402,-54.468 7.344,2.448 17.136,1.224 23.256,1.224 17.748,0.612 36.72,1.224 54.468,-2.448 0.608,43.45 -2.452,87.513 -4.288,131.577 z m 6.12,-138.312 c -13.464,-1.224 -27.54,0 -41.616,0.612 -9.792,0 -31.823,3.672 -40.392,-1.836 -1.225,-0.612 -1.836,-0.612 -2.448,0 -14.688,-17.748 -37.332,-28.764 -64.26,-24.48 -0.612,0 -1.225,0.612 -1.225,0.612 -31.212,-7.344 -62.424,3.672 -83.844,25.704 0,-1.224 -1.224,-2.448 -2.448,-2.448 -31.212,-3.06 -63.648,-3.06 -94.86,-1.836 0,-20.808 -0.612,-42.228 -1.836,-63.036 0,0 0,0 0,-0.612 110.772,5.508 222.767,7.956 333.541,9.792 0,0.612 0,1.224 0,1.836 -0.612,18.973 -0.612,37.332 -0.612,55.692 z" /><path
         inkscape:connector-curvature="0"
         style="fill:#c792a2;fill-opacity:1"
         id="path11"
         d="m 200.748,179.715 c -15.912,-11.627 -29.987,2.447 -33.659,17.748 -10.404,-6.119 -27.54,-13.465 -26.316,3.061 1.224,15.912 20.808,26.314 34.884,26.314 0.611,0 1.224,-0.611 1.835,-0.611 1.224,1.225 3.672,1.836 5.508,0.611 12.24,-8.566 36.721,-33.658 17.748,-47.123 z" /><path
         inkscape:connector-curvature="0"
         style="fill:#585858;fill-opacity:1"
         id="path13"
         d="m 323.148,124.636 c 2.447,-7.344 3.672,-21.42 -2.448,-25.092 -4.896,-2.448 -14.076,-0.612 -19.584,-0.612 -8.568,0 -17.136,0 -25.704,0.612 -2.448,0 -4.284,1.836 -4.896,4.896 0,7.344 0.611,15.3 1.836,22.644 0.611,2.448 3.061,3.06 4.896,2.448 0,0.612 0.612,0.612 1.225,1.224 12.239,3.06 31.823,6.12 43.451,0.612 3.673,-1.836 3.673,-5.508 1.224,-6.732 z m -22.644,1.224 c -6.73,0.612 -13.464,0 -20.195,0 l 0,-0.612 c -1.225,-5.508 -1.225,-10.404 -0.611,-15.912 10.403,0 20.195,0 30.6,-1.224 0.612,0 5.509,-1.224 5.509,-1.224 0.611,0.612 0,6.732 0,7.956 0,3.06 0,6.12 1.225,9.18 -5.511,-0.001 -11.019,1.223 -16.528,1.836 z" /><path
         inkscape:connector-curvature="0"
         style="fill:#585858;fill-opacity:1"
         id="path15"
         d="m 23.881,266.62 c -0.612,1.836 -1.224,4.283 -1.224,6.119 -0.612,1.225 1.836,1.836 1.836,0.611 0.612,-1.836 1.224,-4.283 1.836,-6.119 0,-1.225 -1.836,-1.836 -2.448,-0.611 z" /><path
         inkscape:connector-curvature="0"
         style="fill:#585858;fill-opacity:1"
         id="path17"
         d="m 44.689,259.887 c -0.612,-2.447 -4.896,-2.447 -5.508,0 -1.224,4.283 0,9.18 0,12.852 0,3.061 4.896,3.061 4.896,0 1.224,-3.672 1.836,-8.569 0.612,-12.852 z" /><path
         inkscape:connector-curvature="0"
         style="fill:#585858;fill-opacity:1"
         id="path19"
         d="m 69.169,265.395 c 0,-2.447 -3.672,-2.447 -3.672,0 0,4.285 0,7.957 0,12.24 0,2.447 3.672,2.447 3.672,0 0,-4.283 0,-7.955 0,-12.24 z" /><path
         inkscape:connector-curvature="0"
         style="fill:#585858;fill-opacity:1"
         id="path21"
         d="m 83.245,267.844 c -1.224,3.059 -1.224,6.73 -1.836,9.791 -0.612,3.061 4.284,3.672 4.896,0.611 0.612,-3.672 1.224,-6.73 1.836,-9.791 0.612,-3.06 -3.672,-3.671 -4.896,-0.611 z" /><path
         inkscape:connector-curvature="0"
         style="fill:#585858;fill-opacity:1"
         id="path23"
         d="m 106.5,276.411 c 0,-3.061 -4.284,-3.061 -4.284,0 0,2.447 0,4.896 0,7.955 0,3.062 4.896,3.062 4.896,0 -0.612,-3.059 -0.612,-5.506 -0.612,-7.955 z" /><path
         inkscape:connector-curvature="0"
         style="fill:#585858;fill-opacity:1"
         id="path25"
         d="m 15.312,250.708 c -1.224,3.672 -1.836,7.344 -2.448,11.627 -0.612,3.061 4.284,3.672 4.896,0.611 0.612,-3.672 1.224,-7.344 1.224,-11.627 10e-4,-2.447 -3.059,-2.447 -3.672,-0.611 z" /><path
         inkscape:connector-curvature="0"
         style="fill:#585858;fill-opacity:1"
         id="path27"
         d="m 58.153,247.647 c -2.448,-4.283 -9.18,0 -6.732,3.672 1.224,1.225 1.836,3.061 1.224,4.896 -0.612,4.285 5.508,6.121 6.732,1.838 1.224,-3.062 0.612,-6.734 -1.224,-10.406 z" /><path
         inkscape:connector-curvature="0"
         style="fill:#585858;fill-opacity:1"
         id="path29"
         d="m 32.449,242.75 c -1.224,3.061 -2.448,6.121 -3.672,9.793 -0.612,2.447 3.06,3.672 3.672,1.225 1.224,-3.061 2.448,-6.121 3.06,-9.182 1.224,-2.447 -1.836,-4.283 -3.06,-1.836 z" /><path
         inkscape:connector-curvature="0"
         style="fill:#585858;fill-opacity:1"
         id="path31"
         d="m 74.065,242.139 c -2.448,4.283 -2.448,9.18 0,13.465 1.224,3.061 5.508,0.611 4.896,-1.836 -0.612,-3.061 -0.612,-6.121 0.612,-9.182 0.612,-3.058 -3.672,-4.894 -5.508,-2.447 z" /><path
         inkscape:connector-curvature="0"
         style="fill:#585858;fill-opacity:1"
         id="path33"
         d="m 66.109,229.899 c 0,-2.447 -3.672,-2.447 -3.672,0 0,4.285 0,7.957 -1.224,11.629 -0.612,2.447 3.06,3.061 3.672,1.225 0.612,-4.286 1.224,-8.569 1.224,-12.854 z" /><path
         inkscape:connector-curvature="0"
         style="fill:#585858;fill-opacity:1"
         id="path35"
         d="m 46.525,228.063 c -0.612,4.896 -1.836,9.182 -3.672,13.465 -0.612,1.225 1.224,3.061 1.836,1.836 3.672,-4.283 5.508,-9.18 5.508,-14.688 0,-2.449 -3.06,-2.449 -3.672,-0.613 z" /><path
         inkscape:connector-curvature="0"
         style="fill:#585858;fill-opacity:1"
         id="path37"
         d="m 28.777,221.331 c -0.612,-1.836 -3.672,-1.836 -4.284,0 -0.612,4.283 -0.612,7.957 -3.06,11.629 -1.224,2.447 1.836,4.283 3.672,1.836 3.06,-3.672 4.895,-8.569 3.672,-13.465 z" /><path
         inkscape:connector-curvature="0"
         style="fill:#585858;fill-opacity:1"
         id="path39"
         d="m 41.017,216.436 c 0.612,-1.836 -2.448,-3.061 -3.06,-1.225 -2.448,4.283 -2.448,9.18 -0.612,14.076 0.612,1.836 3.672,1.225 3.672,-1.225 -1.225,-4.282 -0.612,-7.954 0,-11.626 z" /><path
         inkscape:connector-curvature="0"
         style="fill:#585858;fill-opacity:1"
         id="path41"
         d="m 23.881,203.583 c 0,-2.447 -3.06,-2.447 -3.672,0 -0.612,4.896 -1.224,9.182 -3.06,13.465 -0.612,1.836 1.836,3.061 3.06,1.225 3.06,-4.898 4.284,-9.794 3.672,-14.69 z" /><path
         inkscape:connector-curvature="0"
         style="fill:#585858;fill-opacity:1"
         id="path43"
         d="m 55.093,206.032 c 0,-1.836 -3.672,-1.836 -3.672,0 -0.612,4.283 0,7.955 0.612,11.629 0,1.225 2.448,1.225 2.448,0 0.612,-4.286 1.224,-7.957 0.612,-11.629 z" /><path
         inkscape:connector-curvature="0"
         style="fill:#585858;fill-opacity:1"
         id="path45"
         d="m 80.185,202.971 c 0,-1.836 -3.672,-1.836 -3.672,0 -0.612,4.283 -0.612,8.568 0,12.852 0,3.062 4.284,3.062 4.284,0 0,-4.895 0,-8.569 -0.612,-12.852 z" /><path
         inkscape:connector-curvature="0"
         style="fill:#585858;fill-opacity:1"
         id="path47"
         d="m 70.393,196.852 c -0.612,-2.449 -3.672,-1.836 -3.672,0.611 0,4.283 -0.612,9.18 -1.836,13.465 -0.612,3.059 3.672,4.283 4.896,1.223 1.836,-5.508 1.836,-10.404 0.612,-15.299 z" /><path
         inkscape:connector-curvature="0"
         style="fill:#585858;fill-opacity:1"
         id="path49"
         d="m 42.241,193.792 c -1.224,3.672 -1.224,7.344 -1.836,11.016 0,1.836 3.06,2.447 3.06,0.611 0.612,-3.672 1.224,-7.344 1.836,-11.016 0,-2.447 -3.06,-2.447 -3.06,-0.611 z" /><path
         inkscape:connector-curvature="0"
         style="fill:#585858;fill-opacity:1"
         id="path51"
         d="m 31.225,184.612 c -0.612,-1.836 -3.06,-1.225 -3.06,0.611 0,4.896 0,9.18 -1.836,13.465 -0.612,1.836 2.448,3.061 3.06,0.611 2.448,-4.896 3.06,-9.793 1.836,-14.687 z" /><path
         inkscape:connector-curvature="0"
         style="fill:#585858;fill-opacity:1"
         id="path53"
         d="m 18.985,170.535 c -0.612,5.508 -1.224,10.403 -1.836,15.911 0,1.836 3.06,2.449 3.672,0.613 0.612,-5.508 1.836,-10.404 1.836,-15.913 0,-2.446 -3.672,-3.058 -3.672,-0.611 z" /><path
         inkscape:connector-curvature="0"
         style="fill:#585858;fill-opacity:1"
         id="path55"
         d="m 42.853,172.984 c -0.612,-2.448 -4.284,-2.448 -4.896,0 -0.612,3.671 -0.612,7.345 -0.612,11.628 0,3.672 4.896,3.672 5.508,0 0.612,-3.672 0.612,-7.344 0,-11.628 z" /><path
         inkscape:connector-curvature="0"
         style="fill:#585858;fill-opacity:1"
         id="path57"
         d="m 36.733,166.864 c -1.224,-3.672 -1.224,-7.956 -1.836,-11.628 0,-2.448 -3.672,-3.06 -4.284,-0.612 -1.224,4.896 -0.612,9.18 1.224,13.464 1.224,3.059 6.12,1.836 4.896,-1.224 z" /><path
         inkscape:connector-curvature="0"
         style="fill:#585858;fill-opacity:1"
         id="path59"
         d="m 45.301,152.176 c -2.448,2.448 -3.06,4.896 -1.836,8.568 0.612,1.836 3.672,1.836 3.672,-0.612 0,-1.836 0.612,-3.672 1.224,-4.896 1.836,-2.449 -1.224,-4.896 -3.06,-3.06 z" /><path
         inkscape:connector-curvature="0"
         style="fill:#585858;fill-opacity:1"
         id="path61"
         d="m 56.929,165.639 c 0,-1.836 -3.672,-1.836 -4.284,0 -0.612,4.896 0,9.792 0,14.688 0,2.447 3.672,2.447 3.672,0 0.612,-4.897 1.224,-9.792 0.612,-14.688 z" /><path
         inkscape:connector-curvature="0"
         style="fill:#585858;fill-opacity:1"
         id="path63"
         d="m 58.153,185.834 c -0.612,2.447 -1.224,4.896 -1.224,7.957 -0.612,3.061 4.284,4.283 4.896,1.225 0.612,-2.449 1.224,-4.896 1.836,-7.957 0.612,-3.672 -4.896,-4.896 -5.508,-1.225 z" /><path
         inkscape:connector-curvature="0"
         style="fill:#585858;fill-opacity:1"
         id="path65"
         d="m 72.841,171.76 c -1.224,4.284 -2.448,7.956 -3.06,12.241 -0.612,3.061 3.672,4.283 4.284,1.225 1.224,-4.285 2.448,-7.957 3.06,-12.24 0.612,-3.062 -3.06,-4.286 -4.284,-1.226 z" /><path
         inkscape:connector-curvature="0"
         style="fill:#585858;fill-opacity:1"
         id="path67"
         d="m 61.825,152.787 c -1.224,3.06 -2.448,6.12 -3.06,9.18 -0.612,3.06 3.672,4.284 4.896,1.224 1.224,-3.06 1.836,-6.12 2.448,-9.792 0,-1.836 -3.672,-3.059 -4.284,-0.612 z" /><path
         inkscape:connector-curvature="0"
         style="fill:#585858;fill-opacity:1"
         id="path69"
         d="m 284.592,160.743 c -0.61,-1.836 -3.672,-1.836 -4.283,0 -1.225,3.06 -0.611,6.732 0,9.792 0,3.06 4.283,3.06 4.283,0 0.612,-3.06 1.224,-6.731 0,-9.792 z" /><path
         inkscape:connector-curvature="0"
         style="fill:#585858;fill-opacity:1"
         id="path71"
         d="m 304.176,160.132 c -1.224,-1.224 -3.672,-0.612 -3.672,1.836 0.612,4.896 1.836,8.568 0,13.464 -0.611,2.447 3.062,4.283 4.284,1.836 3.061,-5.508 4.284,-12.852 -0.612,-17.136 z" /><path
         inkscape:connector-curvature="0"
         style="fill:#585858;fill-opacity:1"
         id="path73"
         d="m 325.597,163.804 c -0.611,-2.448 -4.896,-2.448 -5.509,0 -1.224,4.284 0,7.956 0.612,12.24 0.611,1.836 3.672,1.836 4.284,0 1.224,-4.284 1.836,-7.956 0.613,-12.24 z" /><path
         inkscape:connector-curvature="0"
         style="fill:#585858;fill-opacity:1"
         id="path75"
         d="m 339.062,161.968 c -1.837,-2.448 -5.51,-1.224 -4.896,1.836 0.612,2.448 0.612,5.508 0,7.956 -1.224,3.06 3.672,4.895 5.508,2.448 1.834,-4.284 2.446,-8.569 -0.612,-12.24 z" /><path
         inkscape:connector-curvature="0"
         style="fill:#585858;fill-opacity:1"
         id="path77"
         d="m 334.776,187.059 c -1.225,-4.283 -1.836,-8.568 -1.836,-13.463 0,-2.448 -3.673,-3.06 -4.284,-0.612 -1.225,5.507 -1.225,9.792 0.611,15.3 1.225,3.672 6.733,2.447 5.509,-1.225 z" /><path
         inkscape:connector-curvature="0"
         style="fill:#585858;fill-opacity:1"
         id="path79"
         d="m 317.641,169.924 c -0.611,-2.448 -4.896,-2.448 -5.509,0 -0.61,4.896 0,9.792 0,14.688 0,3.672 5.509,3.672 5.509,0 0.611,-4.897 1.223,-9.792 0,-14.688 z" /><path
         inkscape:connector-curvature="0"
         style="fill:#585858;fill-opacity:1"
         id="path81"
         d="m 296.832,166.864 c -0.611,-2.448 -4.284,-1.836 -4.284,0.612 0,5.508 1.226,10.404 1.837,15.914 0,1.836 3.672,1.836 3.672,-0.613 0,-4.898 -0.613,-10.406 -1.225,-15.913 z" /><path
         inkscape:connector-curvature="0"
         style="fill:#585858;fill-opacity:1"
         id="path83"
         d="m 285.204,184.612 c 0,3.672 0,7.344 0.612,11.016 0,2.447 3.672,2.447 3.672,0 0,-3.672 0.611,-7.344 0.611,-11.016 -0.611,-3.061 -4.895,-3.061 -4.895,0 z" /><path
         inkscape:connector-curvature="0"
         style="fill:#585858;fill-opacity:1"
         id="path85"
         d="m 312.744,190.731 c -0.612,-3.061 -4.284,-3.061 -4.284,0 -0.611,4.896 -0.611,10.404 -0.611,15.301 0,3.672 5.509,3.672 5.509,0 -0.002,-4.897 -0.002,-9.793 -0.614,-15.301 z" /><path
         inkscape:connector-curvature="0"
         style="fill:#585858;fill-opacity:1"
         id="path87"
         d="m 329.88,195.627 c -0.611,-1.836 -4.283,-1.225 -4.283,0.611 -0.611,4.283 0.611,7.955 1.225,12.24 0.611,3.061 5.508,2.447 5.508,-0.613 -0.614,-4.282 -0.614,-8.566 -2.45,-12.238 z" /><path
         inkscape:connector-curvature="0"
         style="fill:#585858;fill-opacity:1"
         id="path89"
         d="m 322.536,202.36 c -0.612,-2.447 -4.896,-2.447 -4.896,0 -0.611,4.283 -0.611,8.568 -0.611,12.852 0,3.672 5.508,3.672 5.508,0 0.611,-3.672 0.611,-7.958 -10e-4,-12.852 z" /><path
         inkscape:connector-curvature="0"
         style="fill:#585858;fill-opacity:1"
         id="path91"
         d="m 298.668,199.911 c 0,-2.447 -3.672,-2.447 -3.672,0 0,3.672 0,7.344 0,11.018 0,2.447 3.672,2.447 3.672,0 0,-3.675 0,-7.346 0,-11.018 z" /><path
         inkscape:connector-curvature="0"
         style="fill:#585858;fill-opacity:1"
         id="path93"
         d="m 288.265,219.495 c -1.225,-3.061 -1.225,-6.73 -1.225,-10.404 0,-3.061 -4.284,-3.672 -4.896,-0.611 -1.225,4.896 -0.611,8.568 1.837,12.854 0.611,3.057 4.895,1.221 4.284,-1.839 z" /><path
         inkscape:connector-curvature="0"
         style="fill:#585858;fill-opacity:1"
         id="path95"
         d="m 301.116,218.272 c -0.612,3.061 -1.225,6.119 -1.225,9.18 -0.611,2.447 3.673,3.672 3.673,1.225 0.61,-3.061 1.224,-6.732 1.836,-9.791 0,-2.45 -3.672,-3.063 -4.284,-0.614 z" /><path
         inkscape:connector-curvature="0"
         style="fill:#585858;fill-opacity:1"
         id="path97"
         d="m 331.716,219.495 c -1.224,4.283 -1.224,7.955 -1.224,11.629 0,2.447 3.672,3.061 4.896,0.611 1.225,-3.672 1.836,-7.344 1.836,-11.629 0.001,-2.445 -4.896,-3.059 -5.508,-0.611 z" /><path
         inkscape:connector-curvature="0"
         style="fill:#585858;fill-opacity:1"
         id="path99"
         d="m 318.252,224.391 c -1.224,3.672 -1.224,7.344 -1.836,11.629 0,1.836 3.061,2.447 3.672,0.611 0.612,-3.672 1.836,-7.344 1.836,-11.629 0,-1.835 -3.06,-2.447 -3.672,-0.611 z" /><path
         inkscape:connector-curvature="0"
         style="fill:#585858;fill-opacity:1"
         id="path101"
         d="m 311.521,230.512 c -0.612,-2.449 -3.673,-2.449 -4.284,0 -1.225,3.672 -0.612,7.955 -0.612,11.627 0,3.672 5.508,3.672 5.508,0 -0.612,-3.672 -10e-4,-7.955 -0.612,-11.627 z" /><path
         inkscape:connector-curvature="0"
         style="fill:#585858;fill-opacity:1"
         id="path103"
         d="m 290.712,233.571 c -0.611,-1.836 -3.672,-1.223 -3.672,0.613 0,3.672 -0.611,7.955 -1.836,11.627 -1.224,2.449 3.061,3.672 4.284,1.225 1.836,-4.286 2.449,-8.569 1.224,-13.465 z" /><path
         inkscape:connector-curvature="0"
         style="fill:#585858;fill-opacity:1"
         id="path105"
         d="m 274.8,247.036 c -1.836,-2.449 -2.447,-5.51 -1.224,-7.957 1.224,-1.836 -1.836,-4.283 -3.061,-2.447 -3.673,4.283 -3.061,10.404 1.225,14.076 1.836,1.224 4.897,-1.836 3.06,-3.672 z" /><path
         inkscape:connector-curvature="0"
         style="fill:#585858;fill-opacity:1"
         id="path107"
         d="m 301.728,243.975 c 0.611,-2.447 -2.447,-3.672 -3.672,-1.225 -2.447,3.672 -2.447,7.957 -1.836,12.24 0.611,2.447 4.283,1.836 4.283,-0.611 -0.61,-3.671 0.613,-6.732 1.225,-10.404 z" /><path
         inkscape:connector-curvature="0"
         style="fill:#585858;fill-opacity:1"
         id="path109"
         d="m 281.532,252.543 c -1.225,4.895 -1.836,9.791 -2.448,14.688 0,1.836 3.062,2.447 3.672,0.611 1.226,-4.896 2.448,-9.791 3.062,-14.689 -0.002,-3.057 -3.672,-3.057 -4.286,-0.61 z" /><path
         inkscape:connector-curvature="0"
         style="fill:#585858;fill-opacity:1"
         id="path111"
         d="m 271.74,252.543 c -0.612,-2.447 -4.284,-1.836 -4.284,0.611 0,4.896 0.612,9.18 1.225,14.076 0.611,3.061 5.509,3.061 4.896,0 -10e-4,-5.507 -0.613,-9.79 -1.837,-14.687 z" /><path
         inkscape:connector-curvature="0"
         style="fill:#585858;fill-opacity:1"
         id="path113"
         d="m 236.856,274.577 c 0,-3.061 -4.284,-3.061 -4.284,0 0,2.447 0,4.895 0,7.955 0,2.447 4.284,2.447 4.284,0 0,-3.061 0,-5.508 0,-7.955 z" /><path
         inkscape:connector-curvature="0"
         style="fill:#585858;fill-opacity:1"
         id="path115"
         d="m 303.564,262.334 c -0.612,-2.447 -3.673,-2.447 -4.284,0 -0.612,4.896 0,9.182 0,14.076 0,3.061 4.284,3.061 4.284,0 0,-4.894 0.612,-9.79 0,-14.076 z" /><path
         inkscape:connector-curvature="0"
         style="fill:#585858;fill-opacity:1"
         id="path117"
         d="m 315.192,263.559 c -0.612,-1.836 -3.672,-1.836 -3.672,0.611 0,4.285 0,9.182 -1.226,13.465 -0.611,2.447 3.062,3.672 3.673,1.225 1.838,-5.508 2.449,-10.404 1.225,-15.301 z" /><path
         inkscape:connector-curvature="0"
         style="fill:#585858;fill-opacity:1"
         id="path119"
         d="m 328.656,241.528 c -1.225,-3.061 -5.508,-2.447 -5.508,0.611 -0.612,3.061 0,5.508 -1.226,8.568 -1.224,3.061 3.673,4.895 4.896,1.836 1.838,-3.06 3.062,-7.343 1.838,-11.015 z" /><path
         inkscape:connector-curvature="0"
         style="fill:#585858;fill-opacity:1"
         id="path121"
         d="m 334.776,259.887 c -0.612,-2.447 -4.896,-2.447 -4.896,0 -0.611,3.061 -0.611,6.732 0,9.793 0.612,3.059 4.896,3.059 4.896,0 0.613,-3.06 0.613,-6.732 0,-9.793 z" /></g></g><g
     id="g123" /><g
     id="g125" /><g
     id="g127" /><g
     id="g129" /><g
     id="g131" /><g
     id="g133" /><g
     id="g135" /><g
     id="g137" /><g
     id="g139" /><g
     id="g141" /><g
     id="g143" /><g
     id="g145" /><g
     id="g147" /><g
     id="g149" /><g
     id="g151" /></svg>