<?xml version="1.0" encoding="UTF-8" standalone="no"?>
<!-- Generator: Adobe Illustrator 16.0.0, SVG Export Plug-In . SVG Version: 6.00 Build 0)  -->

<svg
   xmlns:dc="http://purl.org/dc/elements/1.1/"
   xmlns:cc="http://creativecommons.org/ns#"
   xmlns:rdf="http://www.w3.org/1999/02/22-rdf-syntax-ns#"
   xmlns:svg="http://www.w3.org/2000/svg"
   xmlns="http://www.w3.org/2000/svg"
   xmlns:sodipodi="http://sodipodi.sourceforge.net/DTD/sodipodi-0.dtd"
   xmlns:inkscape="http://www.inkscape.org/namespaces/inkscape"
   version="1.1"
   id="Capa_1"
   x="0px"
   y="0px"
   width="383.01px"
   height="383.01px"
   viewBox="0 0 383.01 383.01"
   style="enable-background:new 0 0 383.01 383.01;"
   xml:space="preserve"
   inkscape:version="0.91 r13725"
   sodipodi:docname="03img-restautant.svg"><metadata
     id="metadata49"><rdf:RDF><cc:Work
         rdf:about=""><dc:format>image/svg+xml</dc:format><dc:type
           rdf:resource="http://purl.org/dc/dcmitype/StillImage" /><dc:title /></cc:Work></rdf:RDF></metadata><defs
     id="defs47" /><sodipodi:namedview
     pagecolor="#ffffff"
     bordercolor="#666666"
     borderopacity="1"
     objecttolerance="10"
     gridtolerance="10"
     guidetolerance="10"
     inkscape:pageopacity="0"
     inkscape:pageshadow="2"
     inkscape:window-width="764"
     inkscape:window-height="480"
     id="namedview45"
     showgrid="false"
     inkscape:zoom="0.61617189"
     inkscape:cx="-111.17028"
     inkscape:cy="191.505"
     inkscape:window-x="0"
     inkscape:window-y="0"
     inkscape:window-maximized="0"
     inkscape:current-layer="g3" /><g
     id="g3"><g
       id="g7"
       style="fill:#585858;fill-opacity:1"><path
         inkscape:connector-curvature="0"
         id="path9"
         d="m 288.425,178.611 c -14.076,-25.704 -56.916,-26.316 -88.74,-24.48 1.226,-7.956 1.837,-17.136 2.448,-25.704 7.956,-1.836 16.524,-4.896 21.42,-11.628 3.672,-4.896 5.508,-11.628 3.672,-17.136 0.612,0 0.612,0 1.226,0 4.283,-1.225 10.403,-3.672 9.792,-8.568 0,-1.836 -1.226,-3.06 -2.448,-3.06 -3.672,-1.225 -6.12,1.224 -9.18,2.448 -1.226,0.611 -2.448,0.611 -3.673,1.224 0.611,-5.508 1.836,-10.404 2.447,-15.912 4.896,-0.612 8.568,-5.508 9.182,-10.404 0.61,-6.12 -3.673,-12.239 -9.182,-15.3 l -0.611,0 c -0.611,-1.224 -2.447,-1.224 -3.672,-0.612 -4.283,4.284 -8.567,10.404 -7.345,16.524 0.612,3.672 2.448,6.732 5.508,8.568 -0.61,5.508 -0.61,11.628 -0.61,17.748 -0.612,0 -1.836,0 -2.448,-0.612 -4.896,-1.224 -6.731,6.12 -1.836,7.344 1.224,0.612 2.448,0.612 3.672,0.612 0,4.896 0,9.18 -4.284,12.852 -3.06,2.448 -6.73,4.284 -11.016,5.508 -0.612,-5.508 -1.225,-11.016 -1.836,-16.523 3.06,-1.224 5.508,-3.672 6.12,-7.956 0,-2.448 -3.062,-4.896 -4.896,-3.672 -1.224,0.612 -1.836,1.224 -3.06,1.836 l 0.61,-0.612 c 0,-4.896 0,-9.792 0,-15.3 1.226,-0.612 2.448,-1.836 3.062,-2.448 3.672,-4.896 3.06,-14.076 -1.225,-18.972 0,-0.612 -0.611,-1.836 -1.837,-1.836 -6.119,-1.836 -11.016,2.448 -12.852,7.956 -2.448,4.896 -3.06,12.852 2.448,16.523 1.224,0.612 2.448,1.225 4.285,1.225 -0.611,4.896 0,9.792 2.447,14.688 0,0.612 0.612,0.612 0.612,0.612 -1.224,0 -3.061,0.612 -4.284,1.224 -1.836,0 -3.06,-0.611 -4.284,-1.836 -3.06,-2.447 -6.732,2.448 -4.284,5.508 1.836,1.837 4.284,3.061 6.732,4.284 0,5.508 0,11.628 0,17.748 -7.344,-0.611 -14.688,-3.672 -17.136,-11.016 1.224,-0.612 2.448,-1.225 3.06,-2.448 2.448,-3.06 0.612,-6.731 -3.06,-6.731 -1.224,0 -1.836,0 -3.06,0.611 0,-3.672 0,-7.344 0.612,-10.403 0.612,-3.673 1.836,-7.345 1.224,-10.404 2.448,-1.225 4.896,-4.284 6.12,-6.732 2.448,-6.12 -1.224,-13.464 -4.896,-18.359 -1.836,-2.448 -5.508,-1.225 -5.508,1.224 -4.284,3.672 -9.792,7.344 -9.792,13.464 0,4.284 2.448,9.18 6.12,10.404 -1.224,3.06 -0.612,6.731 -0.612,10.404 0,3.672 0.612,7.955 1.224,11.628 -1.836,0 -3.672,-0.612 -4.896,-1.225 -2.448,-1.224 -4.896,1.836 -3.06,4.284 1.836,2.448 6.12,4.284 9.792,5.508 1.224,12.24 12.24,19.584 24.48,20.809 0.612,8.567 1.224,17.136 1.836,25.704 -4.285,0.611 -8.568,0.611 -12.241,1.224 -31.212,2.448 -67.32,10.404 -83.844,39.167 -20.808,36.109 -17.136,91.189 -4.896,128.521 0.612,1.225 2.448,1.838 3.06,0.612 4.284,3.672 3.672,3.062 11.628,3.672 2.448,0 5.508,-1.225 7.956,-1.836 15.912,-1.836 21.42,2.447 37.944,4.896 19.584,3.059 24.48,-9.183 42.841,-12.854 12.238,-2.446 22.03,7.957 33.659,9.183 7.955,0.61 9.792,-2.449 17.137,-3.674 18.972,-3.06 42.228,12.854 57.526,-3.06 0.612,-0.613 1.226,-1.225 1.837,-2.449 2.449,-44.064 4.285,-103.429 -17.135,-141.985 z M 219.269,60.495 c 0.612,-1.836 1.226,-3.672 2.448,-4.896 1.836,1.836 4.284,3.672 4.896,6.732 0.61,2.448 -0.612,6.12 -3.062,6.12 -0.611,0 -1.224,-0.612 -1.836,-0.612 -2.446,-1.224 -3.057,-4.896 -2.446,-7.344 z m -53.856,12.24 c -4.896,-2.448 -0.612,-9.792 1.836,-14.076 1.224,2.448 2.448,4.284 3.06,6.731 0.612,3.061 -0.612,9.181 -4.896,7.345 z m 26.316,-3.673 c -1.224,-0.611 0,-4.896 0.612,-6.119 0.612,-1.836 1.836,-4.284 3.672,-5.509 0.612,3.061 1.836,5.509 0.612,8.568 -0.612,1.837 -3.06,4.285 -4.896,3.06 z m -96.084,152.39 c 10.404,-42.841 48.96,-53.857 88.74,-55.693 15.3,-0.612 30.601,-0.612 45.289,0.612 29.988,2.448 50.185,13.464 57.528,43.452 2.447,11.016 4.283,22.031 5.508,33.66 -6.12,6.119 -11.628,12.852 -21.42,11.629 -11.018,-1.226 -18.36,-11.629 -18.36,-22.646 0,-3.061 -4.284,-3.672 -5.508,-1.836 -0.612,0 -1.224,0.611 -1.836,1.224 -4.896,7.957 -4.284,20.196 -15.3,23.869 -12.24,3.672 -26.316,-7.345 -25.093,-20.195 0,-1.226 -1.225,-2.449 -2.447,-2.449 0,-0.611 0,-0.611 0,-1.225 0,-3.06 -4.896,-4.896 -6.12,-1.836 -5.508,11.018 -7.957,22.645 -19.584,28.766 -12.852,6.729 -28.764,1.223 -31.824,-12.24 0.612,-3.061 1.224,-6.731 0.612,-9.793 0,-3.672 -4.896,-4.283 -6.12,-0.611 -3.06,11.017 -6.732,21.421 -17.136,28.152 -11.016,7.344 -25.704,7.344 -33.048,-3.672 1.835,-12.853 3.059,-25.705 6.119,-39.168 z m 201.349,93.635 c -7.956,9.181 -36.108,0 -48.35,0 -9.792,6.121 -20.808,6.732 -32.436,1.226 -2.448,-1.226 -5.508,-2.447 -7.956,-3.673 -7.956,-1.225 -6.12,-1.836 -12.24,-0.61 -6.732,0.61 -11.016,4.895 -17.136,7.344 -11.628,4.283 -20.808,4.283 -32.436,2.447 -11.016,-1.836 -6.12,-3.672 -17.748,-3.672 -11.016,0 -25.092,7.955 -36.108,2.446 l 0,0 c -1.224,-16.522 -2.448,-33.659 -2.448,-50.184 6.732,6.121 17.136,8.568 26.316,6.121 10.404,-2.449 20.196,-10.404 25.704,-20.197 4.284,9.181 14.688,15.912 25.704,15.301 14.076,-0.612 26.929,-11.016 32.437,-23.868 3.061,9.793 13.464,17.137 24.479,18.36 11.017,0.611 20.195,-6.121 24.479,-15.912 3.672,7.345 9.792,12.853 18.36,14.688 8.566,1.836 18.972,-1.226 25.704,-7.344 1.224,18.973 1.836,37.942 3.672,56.916 0.613,0 0.003,0 0.003,0.611 z"
         style="fill:#585858;fill-opacity:1" /><path
         inkscape:connector-curvature="0"
         id="path11"
         d="m 54.029,274.696 c -1.836,-12.24 -4.284,-26.93 -13.464,-35.496 -5.508,-4.896 -20.196,-8.568 -27.54,-3.672 -0.612,-29.377 -1.224,-58.753 -4.284,-87.518 0,-1.836 -3.672,-3.06 -4.284,-0.612 -7.956,57.527 -3.672,118.115 0.612,175.646 0.612,6.119 9.792,6.119 9.792,0 -1.224,-25.092 -1.224,-50.184 -1.836,-75.276 1.836,0 2.448,-1.837 1.836,-3.06 4.896,-3.672 9.792,-4.285 15.3,-1.225 4.896,3.672 7.956,7.955 9.18,14.076 1.836,5.508 3.06,11.627 3.672,17.137 2.448,14.688 1.224,29.375 4.284,43.451 0.612,4.282 7.956,4.282 9.18,0 2.448,-14.076 0,-29.376 -2.448,-43.451 z"
         style="fill:#585858;fill-opacity:1" /><path
         inkscape:connector-curvature="0"
         id="path13"
         d="m 375.33,136.995 c -0.612,-3.672 -4.896,-3.672 -5.508,0 -2.448,26.928 -4.284,56.304 -3.673,85.679 -44.677,-4.895 -54.469,57.529 -37.332,90.576 2.447,4.285 7.956,1.226 7.345,-3.061 -2.448,-17.746 -5.508,-33.047 -0.612,-50.185 4.896,-17.748 14.076,-25.703 30.601,-28.151 0.611,28.151 3.673,55.692 8.567,82.01 0.612,4.283 7.344,3.059 7.344,-1.226 3.06,-57.525 -1.837,-119.337 -6.732,-175.642 z"
         style="fill:#585858;fill-opacity:1" /></g></g><g
     id="g15" /><g
     id="g17" /><g
     id="g19" /><g
     id="g21" /><g
     id="g23" /><g
     id="g25" /><g
     id="g27" /><g
     id="g29" /><g
     id="g31" /><g
     id="g33" /><g
     id="g35" /><g
     id="g37" /><g
     id="g39" /><g
     id="g41" /><g
     id="g43" /></svg>