<?xml version="1.0" encoding="UTF-8" standalone="no"?>
<!-- Generator: Adobe Illustrator 16.0.0, SVG Export Plug-In . SVG Version: 6.00 Build 0)  -->

<svg
   xmlns:dc="http://purl.org/dc/elements/1.1/"
   xmlns:cc="http://creativecommons.org/ns#"
   xmlns:rdf="http://www.w3.org/1999/02/22-rdf-syntax-ns#"
   xmlns:svg="http://www.w3.org/2000/svg"
   xmlns="http://www.w3.org/2000/svg"
   xmlns:sodipodi="http://sodipodi.sourceforge.net/DTD/sodipodi-0.dtd"
   xmlns:inkscape="http://www.inkscape.org/namespaces/inkscape"
   version="1.1"
   id="Capa_1"
   x="0px"
   y="0px"
   width="299.726px"
   height="299.726px"
   viewBox="0 0 299.726 299.726"
   style="enable-background:new 0 0 299.726 299.726;"
   xml:space="preserve"
   inkscape:version="0.91 r13725"
   sodipodi:docname="05img-letter.svg"><metadata
     id="metadata53"><rdf:RDF><cc:Work
         rdf:about=""><dc:format>image/svg+xml</dc:format><dc:type
           rdf:resource="http://purl.org/dc/dcmitype/StillImage" /><dc:title /></cc:Work></rdf:RDF></metadata><defs
     id="defs51" /><sodipodi:namedview
     pagecolor="#ffffff"
     bordercolor="#666666"
     borderopacity="1"
     objecttolerance="10"
     gridtolerance="10"
     guidetolerance="10"
     inkscape:pageopacity="0"
     inkscape:pageshadow="2"
     inkscape:window-width="1366"
     inkscape:window-height="706"
     id="namedview49"
     showgrid="false"
     inkscape:zoom="0.78738578"
     inkscape:cx="-86.996742"
     inkscape:cy="149.86301"
     inkscape:window-x="-8"
     inkscape:window-y="-8"
     inkscape:window-maximized="1"
     inkscape:current-layer="g7" /><g
     id="g7"
     style="fill:#585858;fill-opacity:1"><path
       d="m 295.469,241.954 c -1.837,-33.049 -2.448,-66.708 -5.509,-100.369 0.611,-0.612 1.225,-1.836 0.611,-3.06 -1.836,-7.344 -6.12,-14.076 -12.852,-17.748 -0.612,0 -1.226,-0.612 -1.226,-0.612 1.837,-17.748 1.837,-36.108 -0.611,-53.856 C 273.435,51.621 267.927,11.841 252.626,3.885 241.609,-1.623 216.519,2.049 203.666,1.437 185.918,0.825 168.17,0.213 150.422,0.213 c -41.616,-0.612 -82.62,0 -124.236,3.06 -3.06,0 -6.12,3.06 -4.896,6.732 8.568,29.376 14.688,59.364 20.196,89.352 -5.508,4.896 -10.404,11.016 -14.688,16.524 -4.896,6.12 -9.792,11.628 -14.688,18.36 -0.612,1.224 -0.612,2.448 0,3.06 -4.896,25.705 -5.508,51.409 -6.732,77.724 -0.612,17.137 -7.956,48.349 3.672,63.035 7.956,10.404 23.868,8.568 35.496,9.181 33.66,2.448 67.32,4.896 100.368,7.345 30.6,2.447 61.812,6.12 92.412,4.896 14.688,-0.611 39.78,0 51.408,-11.017 12.242,-11.627 7.958,-32.436 6.735,-46.511 z M 282.004,136.689 c -0.611,0.612 -0.611,0.612 -0.611,1.224 -0.612,0 -1.225,0.612 -2.448,1.224 -1.836,1.836 -4.284,3.672 -6.12,5.508 1.225,-4.896 1.836,-9.792 3.061,-14.688 1.833,1.836 4.282,3.672 6.118,6.732 z M 32.92,13.677 C 88,12.453 142.468,11.229 197.547,13.065 c 12.239,0.612 29.987,-2.448 41.615,1.836 16.524,5.508 20.196,23.868 24.48,39.168 9.18,31.212 9.18,63.036 1.836,94.248 0,0.612 0,1.224 0,1.836 -21.42,18.359 -42.84,34.885 -65.484,52.021 -0.611,0.611 -1.224,1.225 -1.224,1.836 -13.464,-14.688 -34.272,-38.556 -54.468,-39.779 -17.748,-0.612 -31.824,17.747 -43.452,28.765 -1.836,1.836 -4.284,3.672 -6.12,5.508 0,-0.612 0,-1.836 -0.612,-2.448 -9.792,-11.016 -23.256,-19.584 -34.884,-28.764 -1.224,-1.225 -2.448,-1.836 -3.672,-3.061 1.224,0 2.448,-0.612 2.448,-1.837 C 56.176,112.209 43.936,62.638 32.92,13.677 Z M 12.724,259.701 c -4.896,-14.688 0.612,-40.393 0.612,-56.305 0.612,-22.031 2.448,-43.451 2.448,-65.483 0,0 0.612,0 0.612,-0.612 6.12,-5.508 11.628,-12.24 17.136,-18.36 3.06,-3.672 6.12,-6.732 9.18,-10.404 3.06,18.36 6.732,36.108 10.404,54.468 l 0,0 C 41.488,154.437 30.472,145.256 17.62,137.913 c -1.224,-0.612 -2.448,1.224 -1.224,1.836 11.628,12.24 25.092,22.644 37.332,33.048 11.628,9.792 22.644,20.195 36.108,27.54 0.612,0 1.224,0.611 1.836,0.611 -24.48,22.645 -50.184,44.677 -72.828,69.156 -1.836,-3.058 -4.284,-6.119 -6.12,-10.403 z m 132.804,26.317 c -19.584,-1.224 -39.78,-3.06 -59.364,-4.283 -18.36,-1.225 -47.736,1.836 -63.648,-9.181 17.748,-13.464 33.66,-28.151 50.184,-43.452 18.972,-17.136 55.08,-62.424 84.456,-50.184 20.196,8.567 40.393,37.943 55.08,53.855 17.136,18.359 33.66,37.332 50.796,55.691 -34.272,10.405 -95.472,-0.61 -117.504,-2.446 z m 141.984,-19.584 c -1.837,7.956 -7.345,14.076 -15.301,17.748 -22.645,-26.315 -45.899,-51.407 -69.769,-76.5 l 0.612,0 c 28.15,-14.688 54.468,-34.884 77.11,-56.916 0.612,18.36 1.837,36.721 3.062,55.08 2.45,17.748 7.958,42.84 4.286,60.588 z"
       id="path9"
       style="fill:#585858;fill-opacity:1"
       inkscape:connector-curvature="0" /><path
       d="m 214.072,59.578 c -42.84,-1.224 -86.292,2.448 -128.52,7.956 -1.836,0 -1.836,3.06 0,3.06 42.84,-1.224 86.292,-3.06 128.52,-7.344 3.06,0.611 3.06,-3.672 0,-3.672 z"
       id="path11"
       style="fill:#afcece;fill-opacity:1"
       inkscape:connector-curvature="0" /><path
       d="m 229.372,88.954 c -41.004,-10.404 -83.23,-3.06 -123.624,3.672 -2.448,0.612 -1.224,4.284 1.224,3.672 41.004,-5.508 80.783,-8.568 122.398,-3.672 1.838,1.224 1.838,-3.061 0.002,-3.672 z"
       id="path13"
       style="fill:#afcece;fill-opacity:1"
       inkscape:connector-curvature="0" /><path
       d="m 217.132,120.777 c -39.779,-4.284 -82.619,0.612 -122.399,2.448 -3.06,0 -3.06,4.896 0,4.896 40.392,0.612 83.231,4.284 123.011,-1.836 3.672,-0.612 2.448,-5.508 -0.612,-5.508 z"
       id="path15"
       style="fill:#afcece;fill-opacity:1"
       inkscape:connector-curvature="0" /><path
       d="m 84.328,25.917 c -4.896,1.224 -8.568,4.284 -11.628,7.956 -2.448,-1.836 -5.508,-2.448 -9.18,-3.06 -2.448,0 -4.896,2.448 -4.896,4.896 0.612,4.284 2.448,7.344 5.508,9.792 0.612,1.224 1.224,2.448 2.448,3.06 2.448,1.836 7.344,1.836 10.404,0.612 l 0.612,0 C 84.328,47.95 88,38.158 89.224,32.038 91.06,28.366 88,25.306 84.328,25.917 Z"
       id="path17"
       style="fill:#afcece;fill-opacity:1"
       inkscape:connector-curvature="0" /></g><g
     id="g19" /><g
     id="g21" /><g
     id="g23" /><g
     id="g25" /><g
     id="g27" /><g
     id="g29" /><g
     id="g31" /><g
     id="g33" /><g
     id="g35" /><g
     id="g37" /><g
     id="g39" /><g
     id="g41" /><g
     id="g43" /><g
     id="g45" /><g
     id="g47" /></svg>