<?xml version="1.0" encoding="UTF-8" standalone="no"?>
<!-- Generator: Adobe Illustrator 16.0.0, SVG Export Plug-In . SVG Version: 6.00 Build 0)  -->

<svg
   xmlns:dc="http://purl.org/dc/elements/1.1/"
   xmlns:cc="http://creativecommons.org/ns#"
   xmlns:rdf="http://www.w3.org/1999/02/22-rdf-syntax-ns#"
   xmlns:svg="http://www.w3.org/2000/svg"
   xmlns="http://www.w3.org/2000/svg"
   xmlns:sodipodi="http://sodipodi.sourceforge.net/DTD/sodipodi-0.dtd"
   xmlns:inkscape="http://www.inkscape.org/namespaces/inkscape"
   version="1.1"
   id="Capa_1"
   x="0px"
   y="0px"
   width="370.148px"
   height="370.149px"
   viewBox="0 0 370.148 370.149"
   style="enable-background:new 0 0 370.148 370.149;"
   xml:space="preserve"
   inkscape:version="0.91 r13725"
   sodipodi:docname="06img-honeymoon.svg"><metadata
     id="metadata69"><rdf:RDF><cc:Work
         rdf:about=""><dc:format>image/svg+xml</dc:format><dc:type
           rdf:resource="http://purl.org/dc/dcmitype/StillImage" /><dc:title /></cc:Work></rdf:RDF></metadata><defs
     id="defs67" /><sodipodi:namedview
     pagecolor="#ffffff"
     bordercolor="#666666"
     borderopacity="1"
     objecttolerance="10"
     gridtolerance="10"
     guidetolerance="10"
     inkscape:pageopacity="0"
     inkscape:pageshadow="2"
     inkscape:window-width="1366"
     inkscape:window-height="706"
     id="namedview65"
     showgrid="false"
     inkscape:zoom="1.0729879"
     inkscape:cx="190.49396"
     inkscape:cy="268.83179"
     inkscape:window-x="-8"
     inkscape:window-y="-8"
     inkscape:window-maximized="1"
     inkscape:current-layer="g7" /><g
     style="fill:#585858;fill-opacity:0.94117647"
     id="g5"><g
       style="fill:#585858;fill-opacity:0.94117647"
       id="g7"><path
         inkscape:connector-curvature="0"
         style="fill:#585858;fill-opacity:0.94117647"
         id="path9"
         d="m 304.06,210.281 c 5.509,-58.751 -48.349,-102.204 -103.429,-108.936 15.912,-12.24 39.78,-36.721 24.48,-51.408 -17.137,-15.912 -33.048,4.284 -41.616,23.256 -10.404,-19.584 -28.152,-42.229 -42.228,-23.256 -14.688,20.195 8.568,42.228 28.152,51.408 -61.812,8.567 -107.712,64.26 -104.652,126.684 -18.972,-2.447 -37.944,10.404 -49.572,25.092 -8.568,11.629 -22.644,37.332 -10.404,50.185 1.224,1.225 3.672,0 3.672,-1.225 14.688,0.611 29.376,1.836 44.064,1.225 -2.448,9.793 -1.224,20.195 4.896,29.377 15.3,22.643 46.512,24.479 66.708,8.566 9.18,-7.344 15.912,-17.748 18.36,-28.15 11.016,1.223 21.42,0.609 32.436,1.223 10.404,0 21.419,1.836 31.824,1.225 0,4.896 1.225,10.404 3.062,14.688 12.239,29.988 48.96,37.943 76.5,25.705 20.195,-9.182 28.15,-23.869 28.15,-38.557 7.345,0 14.688,-0.611 22.032,-0.611 7.956,0 16.523,0.611 24.479,-1.227 3.673,-1.223 4.284,-4.895 3.061,-7.344 1.225,-0.611 1.836,-1.223 2.448,-2.447 14.689,-42.229 -16.524,-94.249 -62.423,-95.473 z M 118.624,332.07 c -14.076,11.627 -34.272,12.24 -47.736,-1.225 -13.464,-13.465 -10.404,-33.66 2.448,-45.9 0.612,0 1.836,0 2.448,-0.611 12.852,-9.18 28.152,-11.629 42.228,-3.672 21.419,12.851 17.747,37.332 0.612,51.408 z m 158.508,12.24 c -20.196,7.344 -45.288,1.223 -53.244,-20.197 -5.509,-14.688 0,-29.375 9.792,-40.391 0.611,0.609 1.836,0.609 3.061,0 17.748,-6.121 36.72,-9.793 52.021,4.895 6.731,6.732 12.853,16.525 12.853,26.316 -0.004,15.301 -11.632,24.481 -24.483,29.377 z m 80.783,-41.004 c 0,0.609 0,1.223 0,1.836 -13.464,-2.449 -30.6,0.611 -44.063,3.059 -6.731,-31.211 -46.512,-58.752 -79.561,-34.27 -14.075,5.508 -23.256,17.746 -25.703,31.822 -19.585,-4.895 -44.676,-3.061 -64.261,3.061 1.224,-10.404 -1.224,-20.809 -9.792,-29.375 -16.524,-16.525 -48.348,-20.197 -63.036,0 l 0,0.611 c -7.344,3.672 -12.24,9.18 -15.3,16.523 -15.3,-1.225 -31.824,0.611 -47.124,1.225 -1.836,-14.688 9.18,-32.438 18.36,-42.229 11.628,-13.465 25.704,-16.525 42.84,-19.584 3.06,-0.613 3.672,-4.896 1.224,-6.732 l 0,-0.611 c 2.448,-57.528 42.84,-113.221 103.428,-117.505 61.812,-4.283 114.444,37.944 120.564,100.368 l 0,0 c -2.448,2.447 -2.448,6.732 1.836,7.346 18.359,3.672 36.107,9.18 48.349,23.867 12.851,17.748 15.911,39.78 12.239,60.588 z" /><path
         inkscape:connector-curvature="0"
         style="fill:#c4afce;fill-opacity:1"
         id="path11"
         d="m 99.04,297.185 c -1.836,2.447 -3.672,4.896 -5.508,7.344 0,0 0,0 -0.612,-0.611 -1.224,-1.836 -3.06,-3.061 -4.284,-4.896 -7.956,-7.344 -19.584,4.285 -11.628,11.629 4.284,5.508 11.016,14.688 19.584,12.852 3.672,-1.225 6.12,-3.672 8.568,-6.73 2.448,-3.062 5.508,-6.121 7.344,-9.793 4.895,-7.346 -6.732,-16.527 -13.464,-9.795 z" /><path
         inkscape:connector-curvature="0"
         style="fill:#c4afce;fill-opacity:1"
         id="path13"
         d="m 262.443,300.246 c -0.612,0.611 -0.612,1.836 -1.225,2.447 l -0.611,-0.611 c -1.225,-1.836 -3.061,-4.283 -5.509,-4.283 -3.672,-0.611 -6.12,0 -9.181,2.447 -2.447,1.836 -3.06,6.119 -2.447,9.18 2.447,8.568 8.567,15.912 16.523,20.809 3.672,2.449 10.404,1.225 12.24,-3.061 3.06,-1.836 4.896,-4.895 4.283,-9.791 l 0,0 c 1.225,-3.061 1.836,-6.119 2.448,-9.793 2.451,-10.405 -10.401,-16.524 -16.521,-7.344 z" /><path
         inkscape:connector-curvature="0"
         style="fill:#585858;fill-opacity:0.94117647"
         id="path15"
         d="m 174.927,146.633 c 0,-1.836 0,-3.06 0,-4.896 0,-3.061 -4.896,-3.672 -5.508,-0.612 -0.612,1.836 -0.612,3.061 -0.612,4.896 -34.272,0.611 -77.724,27.54 -77.724,64.259 -1.224,1.836 -1.836,4.896 0.612,7.344 17.136,17.139 50.184,19.584 70.38,6.121 3.06,1.836 7.344,0 7.956,-4.283 1.836,-22.031 4.284,-44.064 4.896,-66.097 1.836,-1.836 1.836,-4.897 0,-6.732 z m -14.688,69.769 c -9.792,1.836 -19.584,3.672 -29.988,2.447 -11.628,-1.225 -20.808,-6.119 -30.6,-11.018 3.672,-16.521 14.688,-28.763 29.376,-37.331 12.24,-6.731 25.704,-9.18 37.944,-14.076 -3.06,20.197 -4.896,40.394 -6.732,59.978 z" /><path
         inkscape:connector-curvature="0"
         style="fill:#585858;fill-opacity:0.94117647"
         id="path17"
         d="m 207.363,141.737 c -1.225,0 -1.836,0 -3.061,0.612 -1.225,-1.836 -5.509,-2.448 -5.509,0.611 -4.283,26.316 -6.119,53.244 -7.955,79.561 0,3.672 3.061,6.121 6.119,6.121 23.257,1.223 46.513,0 69.769,-1.836 3.061,-0.613 5.509,-2.449 6.12,-4.896 2.447,1.225 6.12,-0.611 5.508,-4.285 -5.506,-36.108 -36.107,-69.768 -70.991,-75.888 z m -4.284,74.052 c 0,-20.807 1.225,-42.227 1.225,-63.035 29.376,13.464 50.185,31.212 63.647,60.588 -0.611,0 -0.611,0 -1.225,0 -21.418,2.447 -42.227,2.447 -63.647,2.447 z" /><path
         inkscape:connector-curvature="0"
         style="fill:#585858;fill-opacity:0.94117647"
         id="path19"
         d="m 132.699,92.165 c -6.12,0 -11.628,1.225 -17.748,3.061 -3.06,1.224 -2.448,5.508 0.612,5.508 6.12,0 11.628,-1.225 17.748,-3.672 2.448,-0.613 2.448,-4.897 -0.612,-4.897 z" /><path
         inkscape:connector-curvature="0"
         style="fill:#585858;fill-opacity:0.94117647"
         id="path21"
         d="m 121.071,68.909 c -3.672,0.612 -7.344,0.612 -10.404,0 -3.672,-0.612 -6.12,3.672 -2.448,6.12 4.896,2.448 9.792,2.448 14.688,0.612 3.673,-1.836 2.448,-7.955 -1.836,-6.732 z" /><path
         inkscape:connector-curvature="0"
         style="fill:#585858;fill-opacity:0.94117647"
         id="path23"
         d="m 136.983,43.817 c -2.448,-4.896 -4.896,-9.18 -7.956,-12.853 -2.448,-3.06 -6.732,0.612 -4.896,3.673 2.448,4.896 5.508,8.567 8.568,12.852 1.836,3.06 6.12,-0.612 4.284,-3.672 z" /><path
         inkscape:connector-curvature="0"
         style="fill:#585858;fill-opacity:0.94117647"
         id="path25"
         d="m 163.911,10.77 c -1.224,-2.448 -4.896,-3.062 -5.508,0 -1.224,4.896 -0.612,9.18 0.612,14.076 0.612,3.672 6.12,2.447 6.12,-0.612 -0.612,-4.897 0,-9.181 -1.224,-13.464 z" /><path
         inkscape:connector-curvature="0"
         style="fill:#585858;fill-opacity:0.94117647"
         id="path27"
         d="m 193.899,13.829 c -1.836,4.896 -2.448,9.792 -2.448,14.688 -0.611,3.06 4.896,3.672 5.508,0.611 1.225,-4.896 2.448,-9.792 2.448,-14.688 0,-3.059 -4.895,-3.67 -5.508,-0.611 z" /><path
         inkscape:connector-curvature="0"
         style="fill:#585858;fill-opacity:0.94117647"
         id="path29"
         d="m 228.172,11.993 c -3.061,3.061 -4.896,6.732 -6.731,9.792 -2.448,3.672 3.06,7.956 6.119,4.284 2.448,-3.061 5.509,-6.12 7.345,-9.792 1.222,-3.672 -3.674,-7.956 -6.733,-4.284 z" /><path
         inkscape:connector-curvature="0"
         style="fill:#585858;fill-opacity:0.94117647"
         id="path31"
         d="m 261.831,35.861 c -4.896,0 -9.792,1.836 -14.688,3.06 -4.283,1.225 -2.447,7.956 1.836,6.732 4.896,-1.224 10.404,-1.836 14.688,-4.284 2.448,-1.223 1.225,-5.508 -1.836,-5.508 z" /><path
         inkscape:connector-curvature="0"
         style="fill:#585858;fill-opacity:0.94117647"
         id="path33"
         d="m 264.279,71.357 c -5.509,-4.284 -12.24,-5.508 -18.36,-7.344 -4.896,-1.225 -6.73,6.119 -1.836,7.955 6.12,2.448 11.628,5.509 18.36,5.509 1.836,-0.612 4.285,-4.284 1.836,-6.12 z" /><path
         style="fill:#c4afce;fill-opacity:1"
         d="m 153.0293,42.494141 c -4.02019,0.03493 -7.98778,2.143838 -11.69922,7.146484 -15.459,20.818574 8.53194,42.487415 28.09037,51.705865 12.90241,-1.895011 16.27516,-1.890513 31.1484,0.0402 17.39309,-12.778576 39.90523,-37.059095 24.60523,-51.746095 -17.137,-15.912 -33.04724,4.283859 -41.61524,23.255859 -7.47787,-14.076 -18.74921,-29.733819 -29.72461,-30.382812 -0.26842,-0.01587 -0.53667,-0.02186 -0.80468,-0.01953 z"
         id="path9-0"
         inkscape:connector-curvature="0"
         sodipodi:nodetypes="ccccccssc" /></g></g><g
     id="g35" /><g
     id="g37" /><g
     id="g39" /><g
     id="g41" /><g
     id="g43" /><g
     id="g45" /><g
     id="g47" /><g
     id="g49" /><g
     id="g51" /><g
     id="g53" /><g
     id="g55" /><g
     id="g57" /><g
     id="g59" /><g
     id="g61" /><g
     id="g63" /></svg>